<?xml version="1.0" encoding="utf-8"?>
<!-- Generator: Adobe Illustrator 24.0.1, SVG Export Plug-In . SVG Version: 6.00 Build 0)  -->
<svg version="1.1" id="Layer_1" xmlns="http://www.w3.org/2000/svg" xmlns:xlink="http://www.w3.org/1999/xlink" x="0px" y="0px"
	 viewBox="0 0 325.5 364.7" style="enable-background:new 0 0 325.5 364.7;" xml:space="preserve">
<style type="text/css">
	.st0{fill:#0C6D36;}
	.st1{fill:url(#);}
	.st2{opacity:0.95;fill:#0C6D36;}
	.st3{fill:#F69021;}
	.st4{fill:#0F8A46;}
	.st5{fill:#4A4A4A;}
	.st6{display:none;}
	.st7{display:inline;fill:#0C6D36;}
	.st8{display:inline;fill:#F69021;}
	.st9{display:inline;fill:#0F8A46;}
	.st10{fill:#D39C42;}
	.st11{fill:#F9B233;}
</style>
<g>
	<path class="st3" d="M324.9,184.6c-0.2,3.7-1.1,6.5-2.8,8.5c1.7-1.8,2.6-4.3,2.8-7.6c0.5-7.7,0.7-15.3,0.7-23
		C325.5,169.9,325.2,177.2,324.9,184.6z M323.3,134c0.7,1.6,1.2,3.5,1.5,5.9C324.6,137.6,324.1,135.6,323.3,134z M312.7,196.7
		c-7.5,0.4-14.9,0.7-22.4,0.7c-2.9,0-4.5,0.8-5.4,3.8c-2.1,6.9-4.8,13.6-8.2,20c3.4-5.9,5.9-12.3,7.9-18.8c1-3.5,2.8-4.6,6.3-4.8
		c7.7-0.4,15.4,0.2,23-1C313.5,196.6,313.1,196.7,312.7,196.7z M312,145.2c0-3.4-1.3-4.3-4.4-4.3c-8,0.1-16-0.1-23.9-0.1
		c-4.6,0-7.6-2-8.7-6.5c-2.8-11-7.6-21.2-12.6-31.3c-1.7-3.5-1.8-6.4-0.1-9.1c-1.7,2.4-1.8,5-0.5,8c5.1,11,10.2,22,13.4,33.7
		c1.2,4.3,4.7,5.7,8.9,5.7c7.6,0,15.3,0.2,22.9-0.1c3.6-0.1,5,0.8,4.9,4.7c-0.2,11.1-0.2,22.3,0,33.4c0,1.4-0.1,2.4-0.5,3.1
		c0.4-0.6,0.6-1.5,0.6-2.9C311.8,168.2,311.8,156.7,312,145.2z M296.9,70.5c0.7,3-0.5,5.8-3.4,9.2c0.1-0.1,0.3-0.3,0.4-0.4
		C296.7,76.2,297.7,73.4,296.9,70.5z M293.6,260.2c-10.1,11.7-20.9,22.8-32.7,32.8c-6.1,5.2-10.3,4.9-16.2-0.6
		c-5.1-4.7-10.2-9.5-15-14.6c-0.9-1-1.8-1.7-2.7-2.1c0.5,0.3,1,0.7,1.6,1.3c5,5.1,10,10.2,15.3,15c6.8,6.3,10.8,6.5,17.8,0.4
		c11.4-9.7,21.9-20.4,31.6-31.7c1.3-1.5,2.3-2.9,2.9-4.3C295.6,257.7,294.7,259,293.6,260.2z M292.1,81.4
		c-4.7,4.9-9.4,9.9-14.3,14.7c0.1-0.1,0.2-0.2,0.3-0.3c5.1-4.7,9.9-9.8,14.5-14.9C292.4,81,292.2,81.2,292.1,81.4z M280.2,249.4
		c-4.6-4.3-8.9-8.9-13.4-13.4c-2.6-2.6-4.3-4.3-5.3-5.8c0.6,1.4,1.6,2.7,2.9,4c5.4,5.1,10.5,10.7,15.9,15.9c1.2,1.2,1.8,2.2,1.6,3.2
		C282.2,252,281.7,250.9,280.2,249.4z M277.7,96.1c-0.2,0.2-0.4,0.4-0.6,0.6c-1.5,1.5-2,2.8-1.6,4.3C275.3,99.3,276,97.8,277.7,96.1
		z M276.4,221.7c0,0,0,0.1-0.1,0.1c-0.8,1.5-1,2.6-0.7,3.7C275.4,224.4,275.6,223.2,276.4,221.7z M214.2,44.3l-1.3,0
		c3.1,1.3,6.1,2.8,9.1,4.4c3,1.6,5,1.2,7.3-1.3c0.8-0.8,1.5-1.6,2.3-2.4C225.2,50.9,224,50.2,214.2,44.3z M0.7,184.9
		C0.3,177.5,0,170,0,162.6c0,6.8,0.1,13.5,0.5,20.3c0,0.8,0.1,1.6,0.2,2.3C0.7,185.1,0.7,185,0.7,184.9z M3.7,131.8
		c1.6-1.6,3.7-2.6,6.6-3.1c0.4-0.1,0.9-0.1,1.3-0.2C8.1,128.8,5.5,129.9,3.7,131.8z M31.9,245.4c0.3-0.4,0.6-0.7,1-1.1
		C32.5,244.7,32.2,245.1,31.9,245.4z M47.3,95.5c-5.2-4.9-10.1-10.1-14.9-15.4c-3.9-4.3-4.9-7.7-3-11.6c-2.1,4-1.1,7.5,2.8,11.9
		c5,5.5,10.3,10.9,15.6,16.1c1,1,1.8,2,2.1,3C49.6,98,48.7,96.8,47.3,95.5z M48.8,220.7c-3.3-5.9-6-12.3-7.8-18.8
		c-1-3.6-2.9-4.5-6.4-4.5c-7.3,0-14.6-0.4-21.9-0.7c-5.2-0.2-8.7-2-10.5-5.6c1.9,3.9,5.5,5.4,12.3,5.8c7,0.4,13.9,0.6,20.9,0.7
		c3,0,4.4,1.2,5.3,4c2.2,7.1,5,14.1,8.6,20.7c0.3,0.6,0.6,1.2,0.7,1.8C49.9,223.1,49.5,222,48.8,220.7z M62.1,232.6
		c-5.5,5.5-10.8,11.2-16.4,16.7c-0.9,0.9-1.5,1.6-1.8,2.4c0.3-0.6,0.9-1.3,1.6-2c5.4-5.2,10.4-10.7,15.8-16c0.9-0.8,1.6-1.7,2.1-2.6
		C63,231.6,62.6,232.1,62.1,232.6z M64,94.9c1.1,2.6,0.8,5.3-0.8,8.5c-4.9,9.6-9.4,19.5-12.2,29.9c-1.5,5.6-5,7.8-10.5,7.7
		c-7.3-0.1-14.6,0.1-21.9-0.1c-2.3-0.1-3.7,0.3-4.4,1.6c0.7-1,2-1.3,3.8-1.2c7.3,0.2,14.6,0.1,21.9,0c7.8-0.1,9.2-1.1,11.2-8.5
		c2.5-9,6.2-17.5,10.4-25.8C64.9,100.3,66,98,64,94.9z M90.9,283.1c-3.7,3.6-7.3,7.2-11.3,10.5c-4.8,4-8.6,4.4-13.5,0.4
		c-13-10.6-24.9-22.5-35.4-35.6c-1.1-1.3-1.7-2.6-2.1-3.9c0.5,2.1,1.8,4.3,4,6.9c9.8,11.4,20.4,21.9,31.7,31.7
		c6.1,5.3,10.2,5.2,16.3-0.2c4.6-4.1,9-8.4,13.3-12.9C93,281,92,281.9,90.9,283.1z M105.3,47.5c-0.6,0.3-1.2,0.5-1.8,0.9
		c-1.9,1.2-3.5,1.5-5,0.9c1.3,0.8,2.7,0.7,4.5-0.2c1-0.5,2-1.1,3.1-1.6L105.3,47.5z"/>
	<path class="st3" d="M324.8,140.2c0-0.1,0-0.1,0-0.2c0,0,0,0,0,0c-0.3-2.4-0.7-4.4-1.5-5.9c0,0,0,0,0,0c-1.8-3.5-5.2-5.3-10.5-5.6
		c-7.3-0.3-14.6-0.7-21.9-0.7c-3.5,0-5.3-0.9-6.4-4.5c-1.9-6.5-4.5-12.9-7.8-18.8c-0.7-1.3-1.1-2.3-1.2-3.4
		c-0.4-1.5,0.1-2.8,1.6-4.3c0.2-0.2,0.4-0.4,0.6-0.6c4.9-4.8,9.6-9.8,14.3-14.7c0.2-0.2,0.3-0.3,0.5-0.5c0.3-0.4,0.7-0.7,1-1.1
		c2.9-3.4,4-6.2,3.4-9.2c-0.3-1.3-1-2.6-2.1-3.9c-10.5-13.1-22.4-25-35.4-35.6c-4.9-4-8.7-3.6-13.5,0.4c-3.9,3.3-7.6,7-11.3,10.6
		c-1.2,1.2-2.2,2.2-3.1,3c-0.8,0.8-1.5,1.6-2.3,2.4c-2.3,2.5-4.3,2.9-7.3,1.3c-3-1.6-6-3.1-9.1-4.4c-3.6-1.5-7.3-2.9-11.1-4
		c-3-0.9-3.8-2.5-3.9-5.3c-0.1-7.1-0.5-14.3-0.8-21.4c-0.4-9.5-4-13.2-13.6-13.4C170,0,156.5,0,143.1,0.1
		c-10.4,0.1-13.9,3.5-14.6,14.1c-0.5,7-0.7,13.9-0.8,20.9c-0.1,2.6-0.7,4.2-3.5,5.1c-6.2,1.9-12.2,4.3-18,7.2c-1,0.5-2.1,1-3.1,1.6
		c-1.8,0.9-3.2,1-4.5,0.2c-0.9-0.4-1.8-1.1-2.7-2.1c-4.8-5.1-9.8-9.9-15-14.6c-5.9-5.5-10.1-5.7-16.2-0.6C52.8,42,42,53.1,31.9,64.8
		c-1.1,1.3-1.9,2.5-2.5,3.6c-1.8,3.9-0.8,7.4,3,11.6c4.8,5.3,9.7,10.5,14.9,15.4c1.4,1.3,2.3,2.6,2.6,3.9c0,0,0,0,0,0
		c0.3,1.1,0.1,2.3-0.7,3.8c0,0,0,0.1,0,0.1c-0.1,0.2-0.2,0.5-0.4,0.7c0,0,0,0,0,0.1c-3.4,6.3-6.1,13-8.2,19.9
		c-0.9,2.9-2.5,3.7-5.4,3.8c-7.5,0.1-14.9,0.4-22.4,0.7c-0.4,0-0.8,0-1.2,0.1c-0.4,0.1-0.9,0.1-1.3,0.2c-2.8,0.5-5,1.5-6.6,3.1
		c-0.1,0.1-0.1,0.1-0.2,0.2c-1.7,2-2.7,4.8-2.8,8.5C0.3,147.9,0,155.2,0,162.6c0,7.4,0.3,14.9,0.7,22.3c0,0.1,0,0.2,0,0.2
		c0,0,0,0,0,0c0.3,2.4,0.7,4.3,1.5,5.9c0,0,0,0,0,0c1.8,3.5,5.2,5.3,10.5,5.6c7.3,0.3,14.6,0.7,21.9,0.7c3.5,0,5.3,0.9,6.4,4.5
		c1.9,6.5,4.5,12.9,7.8,18.8c0.7,1.3,1.1,2.3,1.2,3.3c0.4,1.5-0.1,2.8-1.6,4.3c-0.2,0.2-0.4,0.4-0.6,0.6c-4.9,4.8-9.6,9.8-14.3,14.7
		c-0.2,0.2-0.4,0.4-0.5,0.6c0,0,0,0-0.1,0.1c-0.3,0.4-0.6,0.7-1,1.1c0,0.1-0.1,0.1-0.1,0.2c-2.7,3.3-3.8,6-3.1,8.9
		c0.3,1.3,1,2.6,2.1,3.9c10.5,13.1,22.4,25,35.4,35.6c4.9,4,8.7,3.6,13.5-0.4c3.9-3.3,7.6-7,11.3-10.5c1.2-1.1,2.2-2.1,3.1-2.9
		c0.8-0.8,1.6-1.6,2.4-2.5c2.3-2.5,4.3-2.9,7.3-1.3c3,1.6,6,3.1,9.1,4.4c3.6,1.5,7.3,2.9,11.1,4c3,0.9,3.8,2.5,3.9,5.3
		c0.1,7.1,0.5,14.3,0.8,21.4c0.4,9.5,4,13.2,13.6,13.4c13.5,0.2,26.9,0.2,40.4,0c10.4-0.1,13.9-3.5,14.6-14.1
		c0.5-7,0.7-13.9,0.8-20.9c0.1-2.6,0.7-4.2,3.5-5.1c6.2-1.9,12.2-4.3,18-7.2c1-0.5,2.1-1,3.1-1.6c1.8-0.9,3.2-1,4.5-0.2
		c0.9,0.4,1.8,1.1,2.7,2.1c4.8,5.1,9.8,9.9,15,14.6c5.9,5.5,10.1,5.7,16.2,0.6c11.8-10,22.5-21.1,32.7-32.8c1.1-1.3,2-2.5,2.6-3.7
		c1.8-3.9,0.8-7.3-3-11.6c-4.8-5.3-9.7-10.5-14.9-15.4c-1.5-1.4-2.4-2.7-2.7-4.1c-0.3-1.1-0.1-2.3,0.7-3.7c0,0,0-0.1,0.1-0.1
		c0.1-0.2,0.2-0.4,0.3-0.6c3.4-6.4,6.1-13.1,8.2-20c0.9-2.9,2.5-3.7,5.4-3.8c7.5-0.1,14.9-0.4,22.4-0.7c0.4,0,0.8,0,1.2-0.1
		c0.4-0.1,0.9-0.1,1.3-0.2c2.8-0.5,5-1.5,6.6-3.1c0.1-0.1,0.1-0.1,0.2-0.2c1.7-2,2.7-4.8,2.8-8.5c0.4-7.4,0.6-14.7,0.7-22.1
		C325.5,155.1,325.2,147.6,324.8,140.2z M312,179.6c0,1.3-0.2,2.2-0.6,2.9c-0.7,1.3-2.1,1.7-4.4,1.6c-7.3-0.2-14.6,0-21.9-0.1
		c-5.5-0.1-9,2.1-10.5,7.7c-2.8,10.4-7.3,20.3-12.2,29.9c-1.6,3.2-1.9,5.9-0.8,8.5c1,1.5,2.7,3.3,5.3,5.8c4.4,4.5,8.8,9.1,13.4,13.4
		c1.5,1.4,2.1,2.6,1.7,3.8c-0.1,0.8-0.7,1.6-1.6,2.5c-8.3,8.1-16.6,16.3-24.7,24.7c-2.3,2.3-3.7,1.8-5.7-0.2
		c-5.5-5.6-11.2-10.9-16.6-16.5c-3-3.1-6.2-3.8-9.9-2c-10.9,5.3-22,10.1-33.7,13.5c-2.1,0.6-3.6,1.8-4.5,3.4
		c-0.8,1.4-1.1,3.1-1.1,5.1c0,8-0.1,16,0,23.9c0,3.2-1.1,4.4-4.4,4.4c-11.5-0.1-22.9-0.1-34.4,0c-3,0-4.1-1-4.1-4.1
		c0.1-7.5,0.1-15,0-22.4c0-2.3-0.2-4.1-0.6-5.5c-0.9-2.9-2.8-4.2-7.2-5.4c-10.9-3.1-21.1-7.9-31.3-12.8c-3.9-1.9-6.8-1.3-9.8,1.7
		c-5.5,5.6-11.2,10.9-16.6,16.5c-2.3,2.4-4,2.7-6.5,0.1c-7.9-8.1-15.9-16.1-24-24c-1.8-1.7-2.2-3-1.5-4.4c0.3-0.7,0.9-1.5,1.8-2.4
		c5.6-5.5,10.9-11.2,16.4-16.7c0.5-0.5,0.9-1,1.3-1.5c1.6-2.7,1.6-5.6-0.1-9.1c-5-10.1-9.8-20.3-12.6-31.3c-1.2-4.5-4.1-6.6-8.7-6.5
		c-8,0-16-0.2-23.9-0.1c-3.1,0-4.5-0.9-4.4-4.3c0.2-11.5,0.2-22.9,0-34.4c0-1.3,0.2-2.2,0.6-2.9c0.7-1.3,2.1-1.7,4.4-1.6
		c7.3,0.2,14.6,0,21.9,0.1c5.5,0.1,9-2.1,10.5-7.7c2.8-10.4,7.3-20.3,12.2-29.9c1.6-3.2,1.9-5.9,0.8-8.5c0,0,0,0,0,0
		c-1-1.5-2.7-3.3-5.3-5.9C54.3,84.6,50,80,45.4,75.7c-1.6-1.5-2.1-2.7-1.7-3.9c0.2-0.8,0.7-1.5,1.6-2.4c8.3-8.1,16.6-16.3,24.7-24.7
		c2.3-2.3,3.7-1.8,5.7,0.2c5.5,5.6,11.2,10.9,16.6,16.5c3,3.1,6.2,3.8,9.9,2c10.9-5.3,22-10.1,33.7-13.5c2.1-0.6,3.6-1.8,4.5-3.4
		c0.8-1.4,1.1-3.1,1.1-5.1c0-8,0.1-16,0-23.9c0-3.2,1.1-4.4,4.4-4.4c11.5,0.1,22.9,0.1,34.4,0c3,0,4.1,1,4.1,4.1
		c-0.1,7.5-0.1,15,0,22.4c0,2.3,0.2,4.1,0.6,5.5c0.9,2.9,2.8,4.2,7.2,5.4c10.9,3.1,21.1,7.9,31.3,12.8c3.9,1.9,6.8,1.3,9.8-1.7
		c5.5-5.6,11.2-10.9,16.6-16.5c2.3-2.4,4-2.7,6.5-0.1c7.9,8.1,15.9,16.1,24,24c1.8,1.7,2.2,3,1.5,4.4c-0.3,0.7-0.9,1.5-1.8,2.3
		c-5.6,5.5-10.9,11.2-16.4,16.7c-0.5,0.5-0.9,1-1.3,1.5c-1.7,2.7-1.6,5.6,0.1,9.1c5,10.1,9.8,20.3,12.6,31.3
		c1.2,4.5,4.1,6.6,8.7,6.5c8,0,16,0.2,23.9,0.1c3.1,0,4.5,0.9,4.4,4.3C311.8,156.7,311.8,168.2,312,179.6z"/>
</g>
<g class="st6">
	<polygon class="st7" points="123.5,280.6 204,280.6 204,353.7 125.6,354.8 	"/>
	<path class="st8" d="M178,54.3c-54.8-8.3-106.9,29.8-115,84.4c-4.5,30.5,2.5,58.3,20.8,83.2c8.4,11.5,17.5,22.5,25,34.7
		c1.3,2.1,2.5,4.4,4.1,7.3c0.2,0.4,0.5,0.8,0.8,1.2c2.2,3.4,2,18.2,1.8,21.3c-0.2,2.5,0,5,0,7.5c0,1.6-0.4,2.9-1.7,3.9
		c-6.2,5.2-6.3,6.5-0.6,12.3c3.8,3.9,3.2,12.5-1.1,15.7c-3.9,2.9-4.3,6.8-0.4,10c2.9,2.4,3.8,5,3.9,8.6c0.4,11.9,8.2,19.8,20.1,20.2
		c9,0.2,17.9,0,26.9,0c0,0,0,0,0,0.1c9.1,0,18.3,0.1,27.4,0c11.3-0.2,19-7.4,20-18.6c0.4-4.3,1.5-8,4.8-11c3.3-3,2.9-6-0.6-8.7
		c-5.4-4.2-5.8-12.2-0.9-16.7c4.9-4.5,4.7-7.9-0.8-11.4c-1.4-0.8-2.2-1.6-2.4-3.3c-1.3-11.9-1-20.2,3.8-30.2
		c2.7-8.9,7.8-15.9,13-22.8c9.8-13.1,20.6-25.7,27.3-40.9C284.4,133.7,243.3,64.2,178,54.3z M192.1,350.7c-2.9,0.6-5.9,1-8.9,1
		c-15.7-0.2-31.5,0.9-47.2-0.7c-5.7-0.6-8.7-5.6-7-11.1c0.7-2.2,2.4-1.9,4-1.9c9.9,0,19.9,0,29.8,0c9.5,0,18.9-0.1,28.3,0.1
		c2.3,0,5.9-1.4,5.8,3.1C197.1,345.2,197.5,349.6,192.1,350.7z M197.2,315.6c-0.4,9.9,1.9,9.2-9.3,9.2c-17.7,0-35.4-0.1-53.2,0.1
		c-4.6,0.1-6.5-1.3-5.8-5.9c0.2-1.1,0.1-2.3,0-3.5c-0.4-3.5,1.1-4.6,4.6-4.5c9.9,0.2,19.9,0.1,29.8,0.1c9.8,0,19.5,0.1,29.3-0.1
		C196.1,311,197.3,312,197.2,315.6z M192.1,297.9c-9.8-0.2-19.6-0.1-29.3-0.1c-9.8,0-19.6-0.1-29.3,0.1c-3.5,0.1-4.9-1.1-4.6-4.6
		c0.2-1.6,0.1-3.3,0-5c-0.2-2.6,1-3.5,3.5-3.5c20.4,0,40.8,0,61.1,0c2.4,0,3.8,0.8,3.6,3.5c-0.1,1.5-0.2,3,0,4.5
		C197.7,296.8,196,298,192.1,297.9z M199.2,265c-0.1,0.4-0.2,0.8-0.3,1.2c-0.8,3.5-2.6,4.4-5.9,4.4c-10.1-0.2-20.2-0.1-30.4-0.1
		c-10.1,0-20.2-0.1-30.4,0c-2.7,0-4.2-0.6-4.8-3.6c-2.5-11.1-8.4-20.5-15.1-29.4c-8.7-11.7-18.2-22.9-25.3-35.7
		c-24.9-44.9-10.9-100.6,33.7-124.2c62.2-32.9,125,11.6,129.7,68.8c2.2,26.8-5.7,50-21.6,71c-5.5,7.3-11.1,14.5-16.5,21.8
		c-5.7,7.7-10.6,15.9-13,25.3"/>
</g>
<g class="st6">
	<path class="st9" d="M196,133.5c-15.9,21.6-37.2,37.2-54.1,57.1c-9.9-18-1.7-44.9,16.7-55.3c8.9-5.1,18.2-9.5,26.9-15.1
		c11.6-7.4,23-15.1,31.7-27c1.5,5.2,0.4,9.7,0,14.1c-2.3,25.7-5.7,51.1-17.6,74.5c-5.1,10-12.2,18.2-22.4,23.3
		c-7.4,3.7-14.9,4.5-22.5,0.7c-3.1-1.6-4.4-0.8-6.1,2.1c-9.9,16.8-12,34.1-5.1,52.5c0.8,2.3,4.2,5.5-0.4,7.5
		c-5.1,2.2-9.5,0.1-11-4.9c-4.5-15.9-3.6-31.5,2.9-46.7c5.3-12.4,13.6-22.7,22.6-32.6c7.3-8,14.7-15.8,22.1-23.7
		c5.9-6.3,11.1-13.2,15.1-20.9C195.6,137.7,196.9,136.2,196,133.5z"/>
	<path class="st9" d="M111.2,179.1c3.3,7.5,9.4,12.2,16,16.5c1,0.7,3,1,2.4,2.6c-0.4,1.1-2.2,1.4-3.5,1.3
		c-6.2-0.5-11.4-3.3-15.7-7.6C97.1,178.6,94,162.7,98.2,144c5,9.1,13.3,13.4,20.8,18.7c8.9,6.3,15.5,14,15.4,25.7
		c0,1.8,0.4,4.1-1.4,5c-1.6,0.8-3-0.9-4.4-1.7c-6.2-3.7-11.2-8.7-16.3-13.7c-0.4-0.5-0.8-1.1-1.3-1.6c-0.2-0.7-0.4-1.5-1.2-1.8
		c-0.2-0.3-0.6-0.9-0.7-0.9c-0.6,0.4-0.4,0.9-0.2,1.5c0.4,0.7,0.7,1.5,1.1,2.2C110.4,177.9,110.8,178.5,111.2,179.1z"/>
</g>
</svg>
