<svg xmlns="http://www.w3.org/2000/svg" viewBox="0 0 657.67 52.68"><defs><style>.cls-1{fill:#4a4a4a;}</style></defs><title>Asset 5</title><g id="Layer_2" data-name="Layer 2"><g id="Layer_3" data-name="Layer 3"><path class="cls-1" d="M16,0a32.87,32.87,0,0,1,9.32,1.05,8.41,8.41,0,0,1,5.9,9.12c-.17,1.61-.93,2.12-2.19,1.82-1.89-.46-4.53,1.64-5.53-2.18S18.1,5.18,12.11,6.42C8.84,7.09,7.91,9,8,12.11c.1,2.56,1.07,4,3.73,4.23,4.59.46,9.18,1,13.75,1.61,4.22.58,6.38,3.19,6.49,7.41a55.49,55.49,0,0,1-.18,7.41,7.39,7.39,0,0,1-6.55,7,47.23,47.23,0,0,1-18.2,0A9.17,9.17,0,0,1,.12,29.32C.46,27.18,1.83,27.71,3,27.68c2.21-.05,4-.47,5,2.95C9.78,37,15.54,33.88,19.7,34.22c3.44.29,5-1.83,5.1-5.22.06-3.06-.93-4.94-4.36-5.36-4.58-.56-9.21-.48-13.76-1.5C1.18,20.92.43,16.89.27,12.41,0,6,1.92,2.54,6.23,1.19A16.47,16.47,0,0,1,9.61.45C11.74.24,13.89.17,16,0Z"/><path class="cls-1" d="M199.54,37.12a12.09,12.09,0,0,1-8.32,3.27c-6.41,0-9.5-2.48-10.34-8.84a46.85,46.85,0,0,1-.19-9.4c.63-8.69,8.12-12.81,15.93-8.87,1.31.66,2.38,3,3.68-.4.57-1.46,3.41-.84,5.09-.42s1,2.21,1,3.42c0,8.59.1,17.18,0,25.77-.12,7.56-2.89,10.37-10.46,10.92a27.5,27.5,0,0,1-9.34-.72A6,6,0,0,1,182,47.16c-.33-1.37-1.23-3.29.49-3.95,1.53-.59,4.36-1.14,5,.41,2.19,5,6,4.13,9.47,2.81C200.79,45,199.48,41.21,199.54,37.12Zm-12-10.95c0,1.15,0,2.29,0,3.44,0,4,2.08,5.42,5.9,5.41s6-1.44,6-5.38c0-2.62.05-5.24-.08-7.86-.12-2.44-1.55-3.76-4-4.28C189.52,16.22,187.39,18.49,187.51,26.17Z"/><path class="cls-1" d="M119.54,14.62c0-3.89.15-7.29,0-10.67-.17-2.8.81-3.68,3.64-3.7s3.16,1.28,3.15,3.6c-.08,10.88,0,21.77-.05,32.65,0,3.67-3.19,5.45-6,2.88-1.7-1.57-2.21-.73-3.47-.15-8.55,3.9-15,.35-16.08-8.93a38.92,38.92,0,0,1-.2-6.91c.59-10.29,7.2-14.17,16.62-9.83C117.7,13.82,118.27,14.06,119.54,14.62Zm-.08,12.1c0-.94,0-1.44,0-1.93-.2-5.87-1.48-7.45-6.07-7.49s-5.95,1.69-6.08,7.48a40.89,40.89,0,0,0,.09,4.43c.5,5.24,4.78,7.77,9.4,5.42C120.37,32.82,118.9,29.17,119.46,26.72Z"/><path class="cls-1" d="M264.46,14.56c0-3.93.11-7.37,0-10.8-.11-2.47.57-3.53,3.29-3.5,2.51,0,3.46.64,3.43,3.32-.13,11.21,0,22.42-.07,33.63,0,1.22.48,2.94-1.61,2.9-1.55,0-4,1-4.45-.78-.6-2.22-.59-2.06-2.38-.88-7.95,5.25-15.8,1.53-17-7.89a38.68,38.68,0,0,1-.34-4.43C245.11,13,251.56,8.75,264.46,14.56ZM252.14,25.83c0,.82,0,1.65,0,2.46.26,3.63.76,6.8,5.68,6.91s6.48-2.21,6.43-6.55c0-2-.06-3.92-.07-5.89,0-4.39-2.82-5.55-6.53-5.44C253.32,17.45,252.12,19.36,252.14,25.83Z"/><path class="cls-1" d="M484.79,20c0-5.44.11-10.89,0-16.32-.08-2.61.84-3.42,3.41-3.36,6.58.15,13.18.19,19.76,0,2.94-.1,3.1,1.34,3.14,3.6s-.73,3.2-3.13,3.08c-3.78-.17-7.62.32-11.36-.13-4.82-.58-4.28,2.33-4.38,5.4-.1,3.38.15,5.78,4.61,5.3,3.41-.38,6.91.06,10.36-.12,2.62-.14,2.94,1.18,2.94,3.31s-.28,3.39-2.91,3.25c-3.95-.2-7.91.07-11.86-.09-2.36-.1-3.23.67-3.12,3.07.17,3.45-.13,6.93.09,10.38.21,3.21-1.81,2.83-3.81,2.86s-3.87.21-3.76-2.92C484.94,31.52,484.79,25.74,484.79,20Z"/><path class="cls-1" d="M82.34,12c9.35.05,12.48,3.38,12.31,12.59,0,2.5-.93,3.07-3.19,3-3.95-.14-7.91-.1-11.86,0-1.34,0-3.28-.71-3.67,1.41a5.79,5.79,0,0,0,1.33,5.08c2.11,2.28,8.88,2,10.08-.75,1.28-3,3.39-1.93,5.33-2.16.87-.1,1.73.13,1.83,1.15A5.73,5.73,0,0,1,92.12,38c-5.57,3.67-11.66,3.18-17.6,1.41-4.91-1.47-4.92-6.07-5.34-10.18A31.34,31.34,0,0,1,69,24.77C69.43,14.67,72.26,12,82.34,12Zm-.22,11.88c1.24-2.54,5.56,2.16,5.68-2.92.08-3.54-2.69-4-5.51-4s-6,0-6,3.93C76.24,25.45,80.05,22.17,82.12,23.91Z"/><path class="cls-1" d="M53.55,27.57c-1.81,0-3.63-.09-5.43,0-1.32.09-3.32-.74-3.56,1.49-.21,1.93-.19,4,1.64,5.4,2.67,2,8.26,1.31,10-1.63s4.41-2.11,6-1.35c2.29,1.12.68,3.51-.26,5.08-1.81,3-5.09,3.43-8.19,3.84C42,42,37.78,38.41,37.64,26.7A40.61,40.61,0,0,1,38,19.81c.63-4,2.87-6.66,7-7.23a43.16,43.16,0,0,1,7.86-.46c7.58.32,11.86,6.07,10.4,13.52-.36,1.82-1.42,1.94-2.81,1.93C58.16,27.56,55.86,27.57,53.55,27.57Zm-2.69-4c1.67-1.51,5.55,1.94,5.52-2.62,0-3.82-3.14-4-6.07-4s-5.72.34-5.53,3.94C45,25.56,48.91,22.19,50.86,23.61Z"/><path class="cls-1" d="M328.19,25.27c-.17-2.88,1.29-6.56-2.15-8-3.15-1.3-6.52-1.35-9,2.51-1,1.52-4.74,1.66-6.07-.24-1.2-1.7,0-4.5,1.93-5.55,5.69-3.17,11.85-2.66,17.7-.7,4.63,1.56,4.34,6.14,4.45,10.08.13,4.28.06,8.57,0,12.85,0,3.49-4.1,6.07-5.87,3.58-2-2.82-2.77-.81-4.17-.29a15,15,0,0,1-10.16.32c-3.83-1.24-5.37-4-5.39-7.91s1.59-6.65,5.34-8S322.51,23,328.19,25.27Zm-5.7,10.66c2.33-.16,5.62-.17,5.62-4s-3.2-4-6.07-4.05-5.76.34-5.66,4.33S319.34,35.88,322.49,35.93Z"/><path class="cls-1" d="M277.87,26.48c.07-12.74,10.42-18.76,21.21-13.09,3.25,1.71,6.05,10.42,4.3,13.29-.78,1.28-2,.85-3.1.87-3.8.06-7.6-.05-11.39.06-1.36,0-3.28-.83-3.95.94a5.46,5.46,0,0,0,.95,5.17c1.81,2.42,9.1,2.73,10.19.05,1.39-3.44,3.73-2.44,6-2.53,1,0,1.44.63,1.43,1.58a6.19,6.19,0,0,1-3.68,6c-5.88,2.63-12.09,2.84-17.69-.14C277.16,36,278.47,30.34,277.87,26.48ZM291,23.59c1.72-1.47,5.46,1.94,5.67-2.51.19-4-3-4-5.87-4-3.12-.1-6.06.73-5.73,4.33C285.42,25.28,289.06,22.28,291,23.59Z"/><path class="cls-1" d="M631.69,25.88c0-12.09,10-18.06,21-12.57,3.12,1.55,6.09,10.26,4.58,13.22-.72,1.4-2,1-3,1-4,.06-7.93-.06-11.89.07-1.29,0-3.29-.91-3.66,1.3s-.19,4.36,1.93,5.74c2.93,1.9,7.62.92,9.85-2.11,1.76-2.4,4.32-1.76,6.12-.93s.46,2.91-.14,4.34a5.9,5.9,0,0,1-3.6,3.21,22.73,22.73,0,0,1-3.8,1C636.45,42.48,631.68,38.53,631.69,25.88Zm13.36-2.07c1.27-2.15,5.25,1.93,5.41-2.71.15-4-3-4-5.91-4.07-3.08-.06-6.09.63-5.72,4.33C639.22,25.37,642.87,22.22,645.05,23.81Z"/><path class="cls-1" d="M354.56,40.7c-3.75-.2-7.09-.17-10.07-1.87-2.29-1.3-2.68-3.63-2.88-6-.09-1,.75-1.5,1.62-1.41,2,.21,4.37-1.1,5.63,2.26,1,2.73,7.89,3,10.19,1a3.26,3.26,0,0,0,.91-3.6A3,3,0,0,0,357,29a79.66,79.66,0,0,1-9.34-.78c-4.56-.88-5.7-3.89-5.77-7.89s1.42-7,5.85-7.78a37.06,37.06,0,0,1,12.78,0c1.44.25,3,.6,3.92,1.9,1.1,1.58,2.75,3.77,1,5.16-1.4,1.12-4.83,1.47-5.82-.42-1.61-3.09-4-2.45-6.29-2.45s-4.49.43-4.52,3.37c0,3.27,2.53,2.81,4.6,3,1.81.16,3.62.28,5.42.52,6.78.92,8.16,2.18,8.26,7.49.12,5.85-1.83,8.08-8,9.11C357.39,40.46,355.74,40.57,354.56,40.7Z"/><path class="cls-1" d="M408.69,25.91c0-12.38,11.07-18.53,22.22-12.38a5.69,5.69,0,0,1,2.88,3.26,31.27,31.27,0,0,1-.19,19,6,6,0,0,1-4.23,3.85,15.81,15.81,0,0,1-4.36.84C410.41,41,409,38,408.69,25.91Zm19.63.67c0-1.07,0-1.56,0-2-.21-5.64-1.64-7.26-6.41-7.25s-6.2,1.48-6.33,7.24c0,1.16,0,2.31,0,3.46.18,6.44,2.51,8.34,8.75,6.94C429.53,33.75,427.59,29.25,428.32,26.58Z"/><path class="cls-1" d="M148.68,26c0-3.3-.08-6.61,0-9.91.05-1.31-.89-3.38,1.26-3.69,1.62-.23,3.91-1.14,5,.82s1.78,1,3,.43c9.64-4.44,15.74-.48,15.76,10.16,0,4.46-.12,8.92.06,13.37.1,2.47-.84,3.15-3.14,3-2.11-.09-3.88.06-3.74-3,.22-4.61,0-9.24.08-13.86.1-3.45-.8-6-4.76-5.94-3.64.06-6.55,1.36-6.67,5.66s-.25,8.91-.12,13.36c.07,2.61-.44,3.82-3.46,3.87-3.19,0-3.41-1.44-3.31-3.9C148.79,32.94,148.68,29.46,148.68,26Z"/><path class="cls-1" d="M598.22,26.32c0,3.47.06,7,0,10.41,0,1.18.77,3-1.13,3.31-1.56.3-4,.9-4.67-.33-1.35-2.6-2.25-1.38-3.89-.54-8.22,4.14-15,0-15.15-9.24-.08-4.79.11-9.59-.07-14.38-.1-2.67.94-3.37,3.45-3.37s3.59.54,3.47,3.29c-.2,4.61,0,9.25-.05,13.87,0,3.05.34,5.68,4.35,5.76,3.6.07,6.36-1.1,6.66-5,.37-4.76.39-9.56.36-14.35,0-2.37.43-3.56,3.23-3.6,3,0,3.66,1.09,3.52,3.77C598.08,19.38,598.22,22.85,598.22,26.32Z"/><path class="cls-1" d="M541.48,26.54c0,3.3.06,6.6,0,9.9,0,1.22.72,3-.85,3.51s-4.49,1-5.15-.23c-1.36-2.54-2.11-1.44-3.77-.57-8.07,4.22-15,0-15-9.18,0-4.62.06-9.24,0-13.85-.05-2.39,0-4.06,3.28-4,2.91.07,3.67,1.08,3.57,3.79-.17,4.45-.05,8.91,0,13.36,0,2.94.08,5.73,4.21,5.81,3.89.08,6.57-1.39,6.85-5.42a133.29,133.29,0,0,0,.14-13.85c-.11-2.82.85-3.68,3.65-3.68s3.37,1,3.26,3.49C541.36,19.28,541.48,22.91,541.48,26.54Z"/><path class="cls-1" d="M559,40.63c-6-.07-8.7-2.72-8.88-8.77-.09-3.14,0-6.28,0-9.42-.05-2.16.74-4.47-2.73-5.36-1.62-.41-1.51-4-.15-4.34,3-.7,3-2.37,2.91-4.61-.16-2.39,1.59-2.09,3-2s3.85-.8,3.51,2c-.53,4.39,2.09,4.38,5.11,4.17,1-.07,2,.06,3,0,1.84-.13,2.69.54,2.69,2.52s-.53,2.53-2.49,2.74c-8.23.88-8.23,1-8.2,9.48a42.94,42.94,0,0,0,.16,4.95c.17,1.5.56,3,2.54,3.09,1.78.07,3-.82,3.06-2.53.17-3.14,2.18-3.42,4.46-2.94,2.79.58,1.51,2.91,1.38,4.44C568,38.46,564.67,40.7,559,40.63Z"/><path class="cls-1" d="M391.1,28.79c0-2.64,0-5.27,0-7.9,0-1.69-.09-2.8-2.25-3.63-2.73-1.06-2.69-3.91,0-4.79,2.3-.76,2.1-1.94,2.3-3.53.87-7.13,3.65-9.33,10.81-8.89,1.71.11,2.82.31,2.7,2.42-.1,1.61-.05,2.92-2.3,2.69a3.6,3.6,0,0,0-4.18,2.7c-.64,2.34-1.19,4.73,2.72,4.41,1.95-.15,4-.47,3.89,2.76-.07,3-2.08,2.49-3.74,2.37-2.67-.19-3.36,1-3.3,3.48.15,5.43-.06,10.87.1,16.3.07,2.44-.82,3.14-3.13,3s-3.92,0-3.69-3C391.28,34.4,391.11,31.59,391.1,28.79Z"/><path class="cls-1" d="M606.47,26.21c0-3.47-.05-6.94,0-10.4,0-1.22-.6-3,1.14-3.36,1.55-.33,4.56-.32,4.68.14,1.07,4,2.68.95,3.85.38,5.7-2.79,10.91-.07,11.44,6.21.11,1.32,1.33,3.69-1.45,3.82-1.8.08-4.51,1.34-4.78-2.34-.14-2-1.26-3.48-3.52-3.31a4.36,4.36,0,0,0-4.3,4c-.88,5.09-.35,10.21-.39,15.32,0,2.33-.26,3.61-3.13,3.59s-3.8-.84-3.62-3.68C606.64,33.15,606.47,29.67,606.47,26.21Z"/><path class="cls-1" d="M238.19,20.47c0,5.6-.16,11.21.06,16.8.13,3.13-1.65,3-3.73,2.92s-4,.48-3.94-2.77q.18-17.05,0-34.11c0-3.5,2.22-2.8,4.3-3,2.62-.24,3.43.77,3.36,3.35C238.08,9.26,238.19,14.87,238.19,20.47Z"/><path class="cls-1" d="M442.15,26.06c0-3.29,0-6.58,0-9.88,0-3.67,3-5.86,5.44-3.54,2.28,2.15,3.23.7,4.8.06,5.87-2.39,10.67.74,10.8,7.13,0,1.3.8,3.38-1.69,3.19-1.61-.13-4.2,1.44-4.45-2.06-.16-2.21-1.31-3.82-3.78-3.59-2.69.26-4.1,2-4.19,4.65-.17,4.77-.3,9.54-.25,14.31,0,2.46-.18,4-3.34,4S442,39,442.11,36.44C442.27,33,442.15,29.52,442.15,26.06Z"/><path class="cls-1" d="M140.88,26.43c0,3.3-.09,6.6,0,9.89.1,2.41,0,3.94-3.26,4S133.92,39,134,36.2q.27-10.38,0-20.77c-.07-2.78,1.13-3.21,3.52-3.25,2.55,0,3.55.73,3.41,3.38C140.74,19.17,140.88,22.8,140.88,26.43Z"/><path class="cls-1" d="M137.72,6.05c-2.09.18-3.84.27-3.75-2.81.08-2.49,1.11-3,3.27-2.93s3.77,0,3.72,3C140.92,5.82,139.84,6.37,137.72,6.05Z"/></g></g></svg>